<svg xmlns="http://www.w3.org/2000/svg" style="cursor: move;" width="1263" height="650"><g><path class="link" style="stroke-width: 0.54px; stroke-opacity: 1; stroke: rgb(80, 80, 80); fill: none;" marker-end="" d="M514.5,215, 651.5,295"></path><path class="link" style="stroke-width: 0.54px; stroke-opacity: 1; stroke: rgb(80, 80, 80); fill: none;" marker-end="" d="M514.5,215, 651.5,335"></path><path class="link" style="stroke-width: 0.54px; stroke-opacity: 1; stroke: rgb(80, 80, 80); fill: none;" marker-end="" d="M514.5,255, 651.5,295"></path><path class="link" style="stroke-width: 0.54px; stroke-opacity: 1; stroke: rgb(80, 80, 80); fill: none;" marker-end="" d="M514.5,255, 651.5,335"></path><path class="link" style="stroke-width: 0.54px; stroke-opacity: 1; stroke: rgb(80, 80, 80); fill: none;" marker-end="" d="M514.5,295, 651.5,295"></path><path class="link" style="stroke-width: 0.54px; stroke-opacity: 1; stroke: rgb(80, 80, 80); fill: none;" marker-end="" d="M514.5,295, 651.5,335"></path><path class="link" style="stroke-width: 0.54px; stroke-opacity: 1; stroke: rgb(80, 80, 80); fill: none;" marker-end="" d="M514.5,335, 651.5,295"></path><path class="link" style="stroke-width: 0.54px; stroke-opacity: 1; stroke: rgb(80, 80, 80); fill: none;" marker-end="" d="M514.5,335, 651.5,335"></path><path class="link" style="stroke-width: 0.54px; stroke-opacity: 1; stroke: rgb(80, 80, 80); fill: none;" marker-end="" d="M514.5,375, 651.5,295"></path><path class="link" style="stroke-width: 0.54px; stroke-opacity: 1; stroke: rgb(80, 80, 80); fill: none;" marker-end="" d="M514.5,375, 651.5,335"></path><path class="link" style="stroke-width: 0.54px; stroke-opacity: 1; stroke: rgb(80, 80, 80); fill: none;" marker-end="" d="M514.5,415, 651.5,295"></path><path class="link" style="stroke-width: 0.54px; stroke-opacity: 1; stroke: rgb(80, 80, 80); fill: none;" marker-end="" d="M514.5,415, 651.5,335"></path><path class="link" style="stroke-width: 0.54px; stroke-opacity: 1; stroke: rgb(80, 80, 80); fill: none;" marker-end="" d="M651.5,255, 788.5,315"></path><path class="link" style="stroke-width: 0.54px; stroke-opacity: 1; stroke: rgb(80, 80, 80); fill: none;" marker-end="" d="M651.5,295, 788.5,315"></path><path class="link" style="stroke-width: 0.54px; stroke-opacity: 1; stroke: rgb(80, 80, 80); fill: none;" marker-end="" d="M651.5,335, 788.5,315"></path><path class="link" style="stroke-width: 0.54px; stroke-opacity: 1; stroke: rgb(80, 80, 80); fill: none;" marker-end="" d="M514.5,215, 651.5,255"></path><path class="link" style="stroke-width: 0.54px; stroke-opacity: 1; stroke: rgb(80, 80, 80); fill: none;" marker-end="" d="M514.5,255, 651.5,255"></path><path class="link" style="stroke-width: 0.54px; stroke-opacity: 1; stroke: rgb(80, 80, 80); fill: none;" marker-end="" d="M514.5,295, 651.5,255"></path><path class="link" style="stroke-width: 0.54px; stroke-opacity: 1; stroke: rgb(80, 80, 80); fill: none;" marker-end="" d="M514.5,335, 651.5,255"></path><path class="link" style="stroke-width: 0.54px; stroke-opacity: 1; stroke: rgb(80, 80, 80); fill: none;" marker-end="" d="M514.5,375, 651.5,255"></path><path class="link" style="stroke-width: 0.54px; stroke-opacity: 1; stroke: rgb(80, 80, 80); fill: none;" marker-end="" d="M514.5,415, 651.5,255"></path><path class="link" style="stroke-width: 0.54px; stroke-opacity: 1; stroke: rgb(80, 80, 80); fill: none;" marker-end="" d="M514.5,215, 651.5,375"></path><path class="link" style="stroke-width: 0.54px; stroke-opacity: 1; stroke: rgb(80, 80, 80); fill: none;" marker-end="" d="M514.5,255, 651.5,375"></path><path class="link" style="stroke-width: 0.54px; stroke-opacity: 1; stroke: rgb(80, 80, 80); fill: none;" marker-end="" d="M514.5,295, 651.5,375"></path><path class="link" style="stroke-width: 0.54px; stroke-opacity: 1; stroke: rgb(80, 80, 80); fill: none;" marker-end="" d="M514.5,335, 651.5,375"></path><path class="link" style="stroke-width: 0.54px; stroke-opacity: 1; stroke: rgb(80, 80, 80); fill: none;" marker-end="" d="M514.5,375, 651.5,375"></path><path class="link" style="stroke-width: 0.54px; stroke-opacity: 1; stroke: rgb(80, 80, 80); fill: none;" marker-end="" d="M514.5,415, 651.5,375"></path><path class="link" style="stroke-width: 0.54px; stroke-opacity: 1; stroke: rgb(80, 80, 80); fill: none;" marker-end="" d="M651.5,375, 788.5,315"></path><circle r="10" class="node" id="0_0" style="fill: rgb(255, 255, 255); stroke: rgb(51, 51, 51);" cx="514.5" cy="215"></circle><circle r="10" class="node" id="0_1" style="fill: rgb(255, 255, 255); stroke: rgb(51, 51, 51);" cx="514.5" cy="255"></circle><circle r="10" class="node" id="0_2" style="fill: rgb(255, 255, 255); stroke: rgb(51, 51, 51);" cx="514.5" cy="295"></circle><circle r="10" class="node" id="0_3" style="fill: rgb(255, 255, 255); stroke: rgb(51, 51, 51);" cx="514.5" cy="335"></circle><circle r="10" class="node" id="0_4" style="fill: rgb(255, 255, 255); stroke: rgb(51, 51, 51);" cx="514.5" cy="375"></circle><circle r="10" class="node" id="0_5" style="fill: rgb(255, 255, 255); stroke: rgb(51, 51, 51);" cx="514.5" cy="415"></circle><circle r="10" class="node" id="1_0" style="fill: rgb(255, 255, 255); stroke: rgb(51, 51, 51);" cx="651.5" cy="255"></circle><circle r="10" class="node" id="1_1" style="fill: rgb(255, 255, 255); stroke: rgb(51, 51, 51);" cx="651.5" cy="295"></circle><circle r="10" class="node" id="1_2" style="fill: rgb(255, 255, 255); stroke: rgb(51, 51, 51);" cx="651.5" cy="335"></circle><circle r="10" class="node" id="1_3" style="fill: rgb(255, 255, 255); stroke: rgb(51, 51, 51);" cx="651.5" cy="375"></circle><circle r="10" class="node" id="2_0" style="fill: rgb(255, 255, 255); stroke: rgb(51, 51, 51);" cx="788.5" cy="315"></circle><text class="text" dy=".35em" style="font-size: 12px;" x="479.5" y="455">Input Layer ∈ ℝ⁶</text><text class="text" dy=".35em" style="font-size: 12px;" x="616.5" y="455">Hidden Layer ∈ ℝ⁴</text><text class="text" dy=".35em" style="font-size: 12px;" x="753.5" y="455">Output Layer ∈ ℝ¹</text></g><defs><marker id="arrow" viewBox="0 -5 10 10" markerWidth="7" markerHeight="7" orient="auto" refX="40"><path d="M0,-5L10,0L0,5" style="stroke: rgb(80, 80, 80); fill: none;"></path></marker></defs></svg>